<svg width="256" height="256" viewBox="-10 130 225 200" fill="none" xmlns="http://www.w3.org/2000/svg">
<path d="M196.334 184.612C196.372 182.606 199.244 181.051 200.661 180.358C202.288 179.541 203.995 178.968 205.786 178.641C207.732 178.441 209.676 178.243 211.621 178.043C214.699 177.487 218.514 177.017 221.583 177.716C224.218 178.315 226.793 179.291 229.218 180.477C234.098 182.863 238.467 186.274 242.026 190.374C246.792 195.863 250.129 202.634 251.241 209.838C253.165 222.298 248.351 235.314 239.523 244.171C235.905 247.801 231.599 250.743 226.903 252.795C221.833 255.009 216.774 255.597 211.357 256.193C205.624 256.823 199.833 257.248 194.124 256.407C190.486 255.871 187.384 253.779 184.567 251.503C183.183 250.385 183.224 248.733 183.134 247.025C182.969 243.922 182.312 240.557 182.706 237.461C183.829 237.024 185.955 237.843 187.128 237.887C189.855 237.99 192.648 237.942 195.38 237.886C200.151 237.787 204.485 236.469 209.015 235.082C213.473 233.717 217.883 231.954 221.631 229.124C227.189 224.931 231.089 217.743 229.338 211.006C228.114 206.294 224.265 202.511 219.738 200.719C214.341 198.579 208.619 199.477 203.061 200.157C200.853 200.429 199.131 201.17 197.282 202.328C196.179 202.974 195.069 203.611 193.953 204.235C193.346 204.622 192.77 205.141 192.185 205.268C192.293 201.901 192.113 198.528 192.212 195.163C192.261 193.525 192.652 191.959 192.715 190.332C192.747 189.511 192.589 188.675 192.725 187.87C193.159 187.73 195.879 184.519 196.334 184.612Z" fill="#D7513E"/>
<path d="M0.616524 163.675C0.616524 163.675 -7.27187 254.093 33.385 288.075C74.0418 322.058 136.546 315.383 171.136 286.862C205.726 258.341 204.511 167.316 204.511 167.316L0.616524 163.675Z" fill="#D7513E"/>
<path d="M0.609375 163.673C0.609375 188.251 62.5053 194.622 115.3 190.071C168.094 185.519 204.504 185.519 204.504 167.314C204.504 149.11 145.338 140.917 91.6328 140.917C37.9294 140.917 0.609375 149.11 0.609375 163.673Z" fill="#D7513E"/>
<path d="M17.7227 169.018C26.8745 180.776 73.2078 183.733 113.362 181.172C151.091 178.766 178.872 178.359 186.714 171.466C177.307 162.568 133.263 158.515 92.8343 158.515C54.0168 158.515 25.3717 162.258 17.7227 169.018Z" fill="#F7F8F1"/>
</svg>
